<svg xmlns="http://www.w3.org/2000/svg" xmlns:xlink="http://www.w3.org/1999/xlink" viewBox="0 0 32 32">
  <path d="M29.8836 6.146l-13.426 23.951c-0.1375 0.2456-0.4566 0.3186-0.7023 0.1604l-13.426-8.6239c-0.1375-0.079-0.2267-0.2262-0.2303-0.3874l-0.227-15.3247c0-0.2651 0.2099-0.4749 0.4749-0.4749 0.0612 0 0.1214 0.0116 0.1779 0.0342l27.0192 5.5824c0.2523 0.0521 0.4141 0.3041 0.3619 0.5564 -0.0183 0.0881-0.0579 0.1676-0.113 0.2323z" fill="#41b883"/>
  <path d="M22.5748 3.1146l-10.5999 20.4563c-0.1375 0.2456-0.4566 0.3186-0.7023 0.1604l-9.1584-8.9211c-0.1375-0.079-0.2267-0.2262-0.2303-0.3874l-0.227-10.7035c0-0.2651 0.2099-0.4749 0.4749-0.4749 0.0612 0 0.1214 0.0116 0.1779 0.0342l20.0781 0.227c0.2523 0.0521 0.4141 0.3041 0.3619 0.5564 -0.0183 0.0881-0.0579 0.1676-0.113 0.2323z" fill="#35495e"/>
</svg>